<svg xmlns="http://www.w3.org/2000/svg" width="40" height="50" viewBox="0 0 40 50">
<defs><linearGradient id="gold" x1="0" y1="0" x2="0" y2="1">
<stop offset="0" stop-color="#f6d38a"/><stop offset="0.55" stop-color="#b8893c"/><stop offset="1" stop-color="#6e4e1a"/></linearGradient>
<linearGradient id="steelv" x1="0" y1="0" x2="0" y2="1">
<stop offset="0" stop-color="#f3c79a"/><stop offset="0.5" stop-color="#c08a55"/><stop offset="1" stop-color="#5e3a1f"/></linearGradient>
<linearGradient id="face" x1="0" y1="0" x2="1" y2="1">
<stop offset="0" stop-color="#2f1d16"/><stop offset="1" stop-color="#1e120e"/></linearGradient>
<clipPath id="inner"><path d="M20 7.6 A14.9 14.9 0 1 1 19.99 7.6 Z"/></clipPath></defs>
<path d="M20 5 A17.5 17.5 0 1 1 19.99 5 Z" fill="url(#gold)" stroke="#1a0f08" stroke-width="1.5" stroke-linejoin="round"/>
<path d="M20 7.6 A14.9 14.9 0 1 1 19.99 7.6 Z" fill="url(#face)" stroke="#1a0f08" stroke-width="0.9" stroke-linejoin="round"/>
<g clip-path="url(#inner)"><rect x="20" y="0" width="20" height="50" fill="#b8321f"/></g>
<path d="M20 14.52 Q26.72 21.66 23.78 27.96 Q20 30.48 16.22 27.96 Q13.7 22.5 19.16 19.98 Q19.58 17.46 20 14.52 Z" fill="url(#gold)" stroke="#1a0f08" stroke-width="0.6"/><path d="M20 21.66 Q22.94 25.02 20 27.96 Q17.48 25.02 20 21.66 Z" fill="#fff3b0"/>
<path d="M10 11 Q13 9.4 16 9.2" fill="none" stroke="#ffffff" stroke-width="1.2" opacity="0.6"/>
<circle cx="20" cy="9.4" r="0.9" fill="url(#gold)" stroke="#1a0f08" stroke-width="0.5"/><circle cx="32.6" cy="22.5" r="0.9" fill="url(#gold)" stroke="#1a0f08" stroke-width="0.5"/><circle cx="20" cy="35.6" r="0.9" fill="url(#gold)" stroke="#1a0f08" stroke-width="0.5"/><circle cx="7.4" cy="22.5" r="0.9" fill="url(#gold)" stroke="#1a0f08" stroke-width="0.5"/>
</svg>
