<svg xmlns="http://www.w3.org/2000/svg" width="28" height="110" viewBox="0 0 28 110">
<defs><linearGradient id="blade" x1="0" y1="0" x2="1" y2="0">
<stop offset="0" stop-color="#8d97a4"/><stop offset="0.48" stop-color="#ffffff"/><stop offset="0.52" stop-color="#c6ced8"/><stop offset="1" stop-color="#7b8592"/></linearGradient>
<linearGradient id="wood" x1="0" y1="0" x2="1" y2="0">
<stop offset="0" stop-color="#4a2e18"/><stop offset="0.5" stop-color="#8a5a32"/><stop offset="1" stop-color="#3a2412"/></linearGradient>
<linearGradient id="gold" x1="0" y1="0" x2="0" y2="1">
<stop offset="0" stop-color="#f6d38a"/><stop offset="0.55" stop-color="#b8893c"/><stop offset="1" stop-color="#6e4e1a"/></linearGradient>
<linearGradient id="steel" x1="0" y1="0" x2="1" y2="0.25">
<stop offset="0" stop-color="#855632"/><stop offset="0.38" stop-color="#f3c79a"/>
<stop offset="0.62" stop-color="#c08a55"/><stop offset="1" stop-color="#5e3a1f"/></linearGradient>
<linearGradient id="steelv" x1="0" y1="0" x2="0" y2="1">
<stop offset="0" stop-color="#f3c79a"/><stop offset="0.5" stop-color="#c08a55"/><stop offset="1" stop-color="#5e3a1f"/></linearGradient></defs>
<rect x="12.2" y="28" width="3.6" height="68" rx="1.2" fill="url(#wood)" stroke="#5a3a28" stroke-width="0.7" stroke-linejoin="round"/><rect x="11.6" y="84" width="4.8" height="10" rx="1" fill="#3a2414" stroke="#5a3a28" stroke-width="0.7" stroke-linejoin="round"/><circle cx="14" cy="97" r="2.4" fill="url(#steelv)" stroke="#5a3a28" stroke-width="0.9"/><path d="M15 32 Q26 28 27 40 Q26 52 15 50 Q18 41 15 32 Z" fill="url(#blade)" stroke="#5a3a28" stroke-width="1.1" stroke-linejoin="round"/><path d="M24.6 33 Q26.2 40 24.6 49" fill="none" stroke="#ffffff" stroke-width="0.9" opacity="0.8"/><path d="M12 34 Q6 38 5 44 Q9 42 12 44 Z" fill="url(#steelv)" stroke="#5a3a28" stroke-width="0.7" stroke-linejoin="round"/><circle cx="14" cy="29" r="2" fill="url(#gold)" stroke="#5a3a28" stroke-width="0.7"/>
</svg>
