<svg xmlns="http://www.w3.org/2000/svg" width="60" height="84" viewBox="0 0 60 84">
<defs><linearGradient id="steel" x1="0" y1="0" x2="1" y2="0.25">
<stop offset="0" stop-color="#6f7885"/><stop offset="0.38" stop-color="#eef2f6"/>
<stop offset="0.62" stop-color="#b9c2cd"/><stop offset="1" stop-color="#5a626e"/></linearGradient>
<linearGradient id="steelv" x1="0" y1="0" x2="0" y2="1">
<stop offset="0" stop-color="#eef2f6"/><stop offset="0.5" stop-color="#b9c2cd"/><stop offset="1" stop-color="#5a626e"/></linearGradient>
<linearGradient id="gold" x1="0" y1="0" x2="0" y2="1">
<stop offset="0" stop-color="#f4ecd6"/><stop offset="0.55" stop-color="#cbbd98"/><stop offset="1" stop-color="#7d7056"/></linearGradient>
<linearGradient id="mail" x1="0" y1="0" x2="1" y2="0">
<stop offset="0" stop-color="#42484f"/><stop offset="0.5" stop-color="#8a9199"/><stop offset="1" stop-color="#3e444d"/></linearGradient>
<linearGradient id="skin" x1="0" y1="0" x2="1" y2="0">
<stop offset="0" stop-color="#5d6b5a"/><stop offset="0.6" stop-color="#b9c7b4"/><stop offset="1" stop-color="#98a893"/></linearGradient>
<linearGradient id="hood" x1="0" y1="0" x2="1" y2="0.4">
<stop offset="0" stop-color="#0c0e10"/><stop offset="0.5" stop-color="#15181b"/><stop offset="1" stop-color="#0f1214"/></linearGradient></defs>
<g transform="translate(6,34)"><path d="M16 36 L28 36 L29 48.5 L14 48.5 Z" fill="url(#skin)" stroke="#2e2620" stroke-width="0.9" stroke-linejoin="round"/><path d="M13 44 Q21 40 30 44 L31 48.5 L12 48.5 Z" fill="#181b1e" stroke="#2e2620" stroke-width="0.55" stroke-linejoin="round"/><path d="M7 12 Q1 30 3.4 47 Q10.6 51 18 48.4 Q15 37 18.4 27 Q21.6 18.6 27 15.4 Z" fill="#3a3d44" stroke="#2e2620" stroke-width="0.9" stroke-linejoin="round"/><path d="M7 22 Q5 34 7.4 46 M11.4 20 Q10 34 12 47 M15.6 24 Q14.6 36 15.6 46" fill="none" stroke="#292b30" stroke-width="0.9"/><path d="M22 11 Q34 8.5 38 16 L38 22 Q30 17.5 22 18.5 Z" fill="url(#skin)" stroke="#1a0f08" stroke-width="1.5"/><path d="M22 17 Q33 14.5 37 20.5 L38 25 L40.6 27.6 L37.6 29.6 Q37.8 34.5 34.8 38.2 Q28.5 42.5 22.5 40.5 Z" fill="url(#skin)" stroke="#2e2620" stroke-width="0.9" stroke-linejoin="round"/><path d="M37.8 25 L40.6 27.6 L37.6 29.4" fill="none" stroke="#5d6b5a" stroke-width="0.8"/><path d="M30.5 36 Q33 36.8 35 35.6" fill="none" stroke="#6b3a2a" stroke-width="0.8"/><path d="M29.6 24.6 Q32.2 23.4 34.8 24.6" fill="none" stroke="#2e2620" stroke-width="0.9"/><path d="M28.8 21.8 Q32 21 35.8 21.8" fill="none" stroke="#2e3036" stroke-width="1.3" stroke-linecap="round"/><path d="M7.6 12.4 L35.4 11 Q33 -2 26 -12 Q17 -24 -2 -30 Q9 -18 9.6 -6 Q8.4 4 7.6 12.4 Z" fill="url(#hood)" stroke="#2e2620" stroke-width="0.9" stroke-linejoin="round"/><path d="M-2 -30 Q-5 -27 -4 -24 Q0 -26 1.4 -27.4 Z" fill="url(#hood)" stroke="#2e2620" stroke-width="0.55" stroke-linejoin="round"/><path d="M13 9 Q15 -4 8 -16 M27 9.4 Q25 -2 17 -12" fill="none" stroke="#0b0d0e" stroke-width="0.9"/><path d="M20 -14 Q24 -8 27 0" fill="none" stroke="#1c2024" stroke-width="1" opacity="0.5"/><path d="M9.2 10.6 L34 9.4 L34.6 12.6 L9.4 14 Z" fill="#3d6b5e" stroke="#2e2620" stroke-width="0.55" stroke-linejoin="round"/><path d="M21.8 9.4 l1.1 1.9 2.1 0.2 -1.6 1.4 0.5 2 -2.1 -1.1 -1.9 1.1 0.5 -2.1 -1.6 -1.4 2.1 -0.1 Z" fill="#fff4c4" stroke="#2e2620" stroke-width="0.4"/><path d="M-2.6 15.6 Q20 8.6 47 13.4 Q46.6 16.6 41 17 Q20 13.6 -1 18.6 Q-4.6 17.6 -2.6 15.6 Z" fill="url(#hood)" stroke="#2e2620" stroke-width="0.9" stroke-linejoin="round"/><path d="M1 15.6 Q20 10.6 44 13.8" fill="none" stroke="#1c2024" stroke-width="1" opacity="0.6"/></g>
</svg>
