<svg xmlns="http://www.w3.org/2000/svg" width="60" height="60" viewBox="0 0 60 60">
<defs><linearGradient id="steel" x1="0" y1="0" x2="1" y2="0.25">
<stop offset="0" stop-color="#6f7885"/><stop offset="0.38" stop-color="#eef2f6"/>
<stop offset="0.62" stop-color="#b9c2cd"/><stop offset="1" stop-color="#5a626e"/></linearGradient>
<linearGradient id="steelv" x1="0" y1="0" x2="0" y2="1">
<stop offset="0" stop-color="#eef2f6"/><stop offset="0.5" stop-color="#b9c2cd"/><stop offset="1" stop-color="#5a626e"/></linearGradient>
<linearGradient id="gold" x1="0" y1="0" x2="0" y2="1">
<stop offset="0" stop-color="#fbe39a"/><stop offset="0.55" stop-color="#e0a93e"/><stop offset="1" stop-color="#8e5c17"/></linearGradient>
<linearGradient id="mail" x1="0" y1="0" x2="1" y2="0">
<stop offset="0" stop-color="#42484f"/><stop offset="0.5" stop-color="#8a9199"/><stop offset="1" stop-color="#3e444d"/></linearGradient>
<linearGradient id="skin" x1="0" y1="0" x2="1" y2="0">
<stop offset="0" stop-color="#b37752"/><stop offset="0.6" stop-color="#f3caa8"/><stop offset="1" stop-color="#e9b893"/></linearGradient></defs>
<g transform="translate(6,10)"><path d="M7.5 29 Q6 43 13 48.5 L31 48.5 Q29 41 27 36 Z" fill="url(#mail)" stroke="#1a0f08" stroke-width="1.5" stroke-linejoin="round"/><path d="M9.0 34.0 q1.3 1.8 2.6 0 q1.3 1.8 2.6 0 q1.3 1.8 2.6 0 q1.3 1.8 2.6 0 q1.3 1.8 2.6 0 q1.3 1.8 2.6 0 q1.3 1.8 2.6 0 q1.3 1.8 2.6 0" fill="none" stroke="#14161b" stroke-width="0.55" opacity="0.7"/>
<path d="M9.0 36.6 q1.3 1.8 2.6 0 q1.3 1.8 2.6 0 q1.3 1.8 2.6 0 q1.3 1.8 2.6 0 q1.3 1.8 2.6 0 q1.3 1.8 2.6 0 q1.3 1.8 2.6 0 q1.3 1.8 2.6 0" fill="none" stroke="#14161b" stroke-width="0.55" opacity="0.7"/>
<path d="M9.0 39.2 q1.3 1.8 2.6 0 q1.3 1.8 2.6 0 q1.3 1.8 2.6 0 q1.3 1.8 2.6 0 q1.3 1.8 2.6 0 q1.3 1.8 2.6 0 q1.3 1.8 2.6 0 q1.3 1.8 2.6 0" fill="none" stroke="#14161b" stroke-width="0.55" opacity="0.7"/>
<path d="M9.0 41.8 q1.3 1.8 2.6 0 q1.3 1.8 2.6 0 q1.3 1.8 2.6 0 q1.3 1.8 2.6 0 q1.3 1.8 2.6 0 q1.3 1.8 2.6 0 q1.3 1.8 2.6 0 q1.3 1.8 2.6 0" fill="none" stroke="#14161b" stroke-width="0.55" opacity="0.7"/>
<path d="M9.0 44.4 q1.3 1.8 2.6 0 q1.3 1.8 2.6 0 q1.3 1.8 2.6 0 q1.3 1.8 2.6 0 q1.3 1.8 2.6 0 q1.3 1.8 2.6 0 q1.3 1.8 2.6 0 q1.3 1.8 2.6 0" fill="none" stroke="#14161b" stroke-width="0.55" opacity="0.7"/>
<path d="M9.0 47.0 q1.3 1.8 2.6 0 q1.3 1.8 2.6 0 q1.3 1.8 2.6 0 q1.3 1.8 2.6 0 q1.3 1.8 2.6 0 q1.3 1.8 2.6 0 q1.3 1.8 2.6 0 q1.3 1.8 2.6 0" fill="none" stroke="#14161b" stroke-width="0.55" opacity="0.7"/><path d="M22 17 Q33 14.5 37 20.5 L38 25 L40.6 27.6 L37.6 29.6 Q37.8 34.5 34.8 38.2 Q28.5 42.5 22.5 40.5 Z" fill="url(#skin)" stroke="#1a0f08" stroke-width="1.5" stroke-linejoin="round"/><path d="M37.8 25 L40.6 27.6 L37.6 29.4" fill="none" stroke="#b37752" stroke-width="0.8"/><path d="M29 32.2 Q34 30.2 38.4 31.4 Q37.8 34 34.6 33.8 Q31.6 33.2 29 34.4 Z" fill="#a5723a" stroke="#1a0f08" stroke-width="0.9" stroke-linejoin="round"/><path d="M24 36.5 Q28 39 31 38.6" fill="none" stroke="#734f28" stroke-width="0.7" opacity="0.6"/><path d="M29.4 35.2 Q32 34 34.8 35.4" fill="none" stroke="#3a1410" stroke-width="1.1"/><path d="M29.8 23 L33.8 24.4 L29.8 25.6" fill="none" stroke="#1a0f08" stroke-width="1"/><path d="M28.6 22.6 Q31.8 20 35.6 19.6" fill="none" stroke="#845b2e" stroke-width="1.3" stroke-linecap="round"/><path d="M5.8 27 Q3.8 8.5 20 4 Q34.5 2 40.3 12.5 L38.8 18.8 Q30.5 15.2 23.6 17.2 Q21.4 25.5 23.8 33.8 L14.8 38.2 Q7.6 34.5 5.8 27 Z" fill="url(#steel)" stroke="#1a0f08" stroke-width="1.5" stroke-linejoin="round"/><path d="M9 12 Q14 6.2 22 5.4" fill="none" stroke="#ffffff" stroke-width="1.6" opacity="0.55"/><path d="M6.6 19.2 Q20 13.5 39.6 14.8" fill="none" stroke="url(#gold)" stroke-width="2.2"/><path d="M11 5.5 Q22 -0.6 34 5.2" fill="none" stroke="url(#gold)" stroke-width="1.6"/><path d="M23.6 17.2 Q21.4 25.5 23.8 33.8" fill="none" stroke="#000000" stroke-opacity="0.4" stroke-width="0.9"/><circle cx="10" cy="24" r="0.9" fill="url(#gold)" stroke="#1a0f08" stroke-width="0.5"/><circle cx="16" cy="31" r="0.9" fill="url(#gold)" stroke="#1a0f08" stroke-width="0.5"/><circle cx="19" cy="21" r="0.9" fill="url(#gold)" stroke="#1a0f08" stroke-width="0.5"/><path d="M37.5 13.8 L39.8 13.8 L39.6 24.4 L37.9 25.2 Z" fill="url(#steelv)" stroke="#1a0f08" stroke-width="0.9" stroke-linejoin="round"/><path d="M9 7 L11 -1 L15 4 L20 -3 L24 3 L29 -1 L31 6 Q20 2 9 7 Z" fill="url(#gold)" stroke="#1a0f08" stroke-width="1.5" stroke-linejoin="round"/><circle cx="20" cy="1.5" r="1.3" fill="#d23a3a" stroke="#1a0f08" stroke-width="0.5"/></g>
</svg>
