<svg xmlns="http://www.w3.org/2000/svg" width="80" height="94" viewBox="0 0 80 94">
<defs><linearGradient id="skin" x1="0" y1="0" x2="1" y2="0.25"><stop offset="0.00" stop-color="#e8b090"/><stop offset="0.50" stop-color="#fde6d2"/><stop offset="1.00" stop-color="#f6cfb2"/></linearGradient>
<linearGradient id="gold" x1="0" y1="0" x2="0" y2="1"><stop offset="0.00" stop-color="#f6d77a"/><stop offset="0.50" stop-color="#d9a441"/><stop offset="1.00" stop-color="#a8752a"/></linearGradient>
<linearGradient id="leather" x1="0" y1="0" x2="1" y2="0.25"><stop offset="0.00" stop-color="#5e3a20"/><stop offset="0.50" stop-color="#b07a4a"/><stop offset="1.00" stop-color="#8a5a34"/></linearGradient>
<linearGradient id="steel" x1="0" y1="0" x2="1" y2="0.25"><stop offset="0.00" stop-color="#8e949c"/><stop offset="0.33" stop-color="#f1f2f0"/><stop offset="0.67" stop-color="#c9ccd0"/><stop offset="1.00" stop-color="#8e949c"/></linearGradient>
<linearGradient id="steelv" x1="0" y1="0" x2="0" y2="1"><stop offset="0.00" stop-color="#f1f2f0"/><stop offset="0.50" stop-color="#c9ccd0"/><stop offset="1.00" stop-color="#8e949c"/></linearGradient>
<linearGradient id="cream" x1="0" y1="0" x2="1" y2="0.25"><stop offset="0.00" stop-color="#d9c6a0"/><stop offset="0.50" stop-color="#fbf4e4"/><stop offset="1.00" stop-color="#f1e4c8"/></linearGradient>
<linearGradient id="blue" x1="0" y1="0" x2="1" y2="0.25"><stop offset="0.00" stop-color="#2e467e"/><stop offset="0.50" stop-color="#4a6ab0"/><stop offset="1.00" stop-color="#34508e"/></linearGradient>
<linearGradient id="bluev" x1="0" y1="0" x2="0" y2="1"><stop offset="0.00" stop-color="#4a6ab0"/><stop offset="1.00" stop-color="#2e467e"/></linearGradient>
<linearGradient id="hair" x1="0" y1="0" x2="0" y2="1"><stop offset="0.00" stop-color="#f6d58a"/><stop offset="0.50" stop-color="#e0b060"/><stop offset="1.00" stop-color="#c08a3a"/></linearGradient></defs>
<g transform="translate(16,30)"><circle cx="8" cy="22" r="7.68" fill="url(#hair)" stroke="#5a3a28" stroke-width="1.1" stroke-linejoin="round" stroke-linecap="round"/><circle cx="6" cy="30" r="6.4" fill="url(#hair)" stroke="#5a3a28" stroke-width="1.1" stroke-linejoin="round" stroke-linecap="round"/><circle cx="10" cy="12" r="7.68" fill="url(#hair)" stroke="#5a3a28" stroke-width="1.1" stroke-linejoin="round" stroke-linecap="round"/><circle cx="18" cy="6" r="8.32" fill="url(#hair)" stroke="#5a3a28" stroke-width="1.1" stroke-linejoin="round" stroke-linecap="round"/><circle cx="28" cy="4.6" r="8.32" fill="url(#hair)" stroke="#5a3a28" stroke-width="1.1" stroke-linejoin="round" stroke-linecap="round"/><circle cx="37" cy="7" r="7.68" fill="url(#hair)" stroke="#5a3a28" stroke-width="1.1" stroke-linejoin="round" stroke-linecap="round"/><circle cx="43" cy="13" r="6.4" fill="url(#hair)" stroke="#5a3a28" stroke-width="1.1" stroke-linejoin="round" stroke-linecap="round"/><circle cx="8" cy="37" r="5.760000000000001" fill="url(#hair)" stroke="#5a3a28" stroke-width="1.1" stroke-linejoin="round" stroke-linecap="round"/><path d="M16 40 L28 40 L29 50 L15 50 Z" fill="url(#skin)" stroke="#5a3a28" stroke-width="0.7" stroke-linejoin="round" stroke-linecap="round"/><path d="M8.6 24 Q8 9 24 7.6 Q40 7.6 42.4 22 Q43.4 30 40 36.6 Q35 44 26 44.4 Q15 44.6 10.6 36 Q8.8 31 8.6 24 Z" fill="url(#skin)" stroke="#5a3a28" stroke-width="1.1" stroke-linejoin="round" stroke-linecap="round"/><path d="M11.4 24 Q9 22 8 25 Q7.6 29.6 11.6 30.6 Z" fill="url(#skin)" stroke="#5a3a28" stroke-width="0.7" stroke-linejoin="round" stroke-linecap="round"/><ellipse cx="24.4" cy="32" rx="3.4" ry="2" fill="#f49a9a" opacity="0.55"/><ellipse cx="38" cy="32" rx="2.8" ry="1.8" fill="#f49a9a" opacity="0.55"/><path d="M21.0 22.4 L27.119999999999997 25 L21.0 27.6" fill="none" stroke="#5a3a28" stroke-width="1.3" stroke-linecap="round" stroke-linejoin="round"/><path d="M39.0 22.4 L33.96 25 L39.0 27.6" fill="none" stroke="#5a3a28" stroke-width="1.3" stroke-linecap="round" stroke-linejoin="round"/><path d="M20.8 18.4 Q24 15.6 27 16.4" fill="none" stroke="#b07a2a" stroke-width="1.3" stroke-linecap="round"/><path d="M32.8 16.6 Q36 15.6 38.6 17.6" fill="none" stroke="#b07a2a" stroke-width="1.2" stroke-linecap="round"/><path d="M41 30.4 Q42.2 31.4 41 32" fill="none" stroke="#e8b090" stroke-width="1" stroke-linecap="round"/><path d="M30.4 37.4 Q32 35.8 33.6 37.2 Q35 38.6 36.8 36.8" fill="none" stroke="#5a3a28" stroke-width="1.1" stroke-linecap="round"/><path d="M41 12 Q43.4 16 41.6 18 Q39.6 16.6 41 12 Z" fill="#9fd4ff" stroke="#5a8ab0" stroke-width="0.6"/><circle cx="22" cy="9" r="4.680000000000001" fill="url(#hair)" stroke="#5a3a28" stroke-width="1.1" stroke-linejoin="round" stroke-linecap="round"/><circle cx="29" cy="8" r="4.42" fill="url(#hair)" stroke="#5a3a28" stroke-width="1.1" stroke-linejoin="round" stroke-linecap="round"/><circle cx="35" cy="10" r="4.16" fill="url(#hair)" stroke="#5a3a28" stroke-width="1.1" stroke-linejoin="round" stroke-linecap="round"/><circle cx="40" cy="14" r="3.6399999999999997" fill="url(#hair)" stroke="#5a3a28" stroke-width="1.1" stroke-linejoin="round" stroke-linecap="round"/><circle cx="16" cy="12" r="4.16" fill="url(#hair)" stroke="#5a3a28" stroke-width="1.1" stroke-linejoin="round" stroke-linecap="round"/><path d="M14 16 Q16 10 22 12 M26 12 Q30 8 34 13" fill="none" stroke="#b07a2a" stroke-width="0.9"/></g>
</svg>
