<svg xmlns="http://www.w3.org/2000/svg" width="52" height="72" viewBox="0 0 52 72">
<defs><linearGradient id="skin" x1="0" y1="0" x2="1" y2="0.25"><stop offset="0.00" stop-color="#e8b090"/><stop offset="0.50" stop-color="#fde6d2"/><stop offset="1.00" stop-color="#f6cfb2"/></linearGradient>
<linearGradient id="gold" x1="0" y1="0" x2="0" y2="1"><stop offset="0.00" stop-color="#f6d77a"/><stop offset="0.50" stop-color="#d9a441"/><stop offset="1.00" stop-color="#a8752a"/></linearGradient>
<linearGradient id="leather" x1="0" y1="0" x2="1" y2="0.25"><stop offset="0.00" stop-color="#5e3a20"/><stop offset="0.50" stop-color="#b07a4a"/><stop offset="1.00" stop-color="#8a5a34"/></linearGradient>
<linearGradient id="steel" x1="0" y1="0" x2="1" y2="0.25"><stop offset="0.00" stop-color="#8e949c"/><stop offset="0.33" stop-color="#f1f2f0"/><stop offset="0.67" stop-color="#c9ccd0"/><stop offset="1.00" stop-color="#8e949c"/></linearGradient>
<linearGradient id="steelv" x1="0" y1="0" x2="0" y2="1"><stop offset="0.00" stop-color="#f1f2f0"/><stop offset="0.50" stop-color="#c9ccd0"/><stop offset="1.00" stop-color="#8e949c"/></linearGradient>
<linearGradient id="cream" x1="0" y1="0" x2="1" y2="0.25"><stop offset="0.00" stop-color="#d9c6a0"/><stop offset="0.50" stop-color="#fbf4e4"/><stop offset="1.00" stop-color="#f1e4c8"/></linearGradient>
<linearGradient id="blue" x1="0" y1="0" x2="1" y2="0.25"><stop offset="0.00" stop-color="#2e467e"/><stop offset="0.50" stop-color="#4a6ab0"/><stop offset="1.00" stop-color="#34508e"/></linearGradient>
<linearGradient id="bluev" x1="0" y1="0" x2="0" y2="1"><stop offset="0.00" stop-color="#4a6ab0"/><stop offset="1.00" stop-color="#2e467e"/></linearGradient></defs>
<path d="M11 46 L40 46 L42.6 64 Q26 67.6 9 64 Z" fill="url(#blue)" stroke="#5a3a28" stroke-width="1.1" stroke-linejoin="round" stroke-linecap="round"/>
<path d="M12 46 L20 46 L19 58 Q15 59 11.6 57.6 Z M31 46 L39.6 46 L40.6 57.6 Q36 59 32 58 Z" fill="url(#steel)" stroke="#5a3a28" stroke-width="0.7" stroke-linejoin="round" stroke-linecap="round"/>
<path d="M12.6 20 Q14.6 12.6 25 12 Q37 12 40.6 19.6 Q44 30 40.6 45 L12 46 Q8.8 34 12.6 20 Z" fill="url(#steel)" stroke="#5a3a28" stroke-width="1.1" stroke-linejoin="round" stroke-linecap="round"/>
<path d="M21 16 Q30 15 38.6 19 Q41.6 32 39.4 47 L40.6 64 Q30 66.8 21.4 64 L22.6 47 Q20.4 32 21 16 Z" fill="url(#cream)" stroke="#5a3a28" stroke-width="1.1" stroke-linejoin="round" stroke-linecap="round"/>
<path d="M22.4 18 Q30 16.8 38 20.4 M39.6 62 Q30 64.6 22.4 62" fill="none" stroke="url(#gold)" stroke-width="1.6"/>
<path d="M30.4 25.56 Q32.78 28.96 30.4 31.68 Q28.02 28.96 30.4 25.56 Z" fill="url(#gold)" stroke="#5a3a28" stroke-width="0.7" stroke-linejoin="round" stroke-linecap="round"/><path d="M29.72 30.66 Q25.299999999999997 27.6 25.979999999999997 32.02 Q27.34 31.34 29.38 32.7 Z" fill="url(#gold)" stroke="#5a3a28" stroke-width="0.7" stroke-linejoin="round" stroke-linecap="round"/><path d="M31.08 30.66 Q35.5 27.6 34.82 32.02 Q33.46 31.34 31.419999999999998 32.7 Z" fill="url(#gold)" stroke="#5a3a28" stroke-width="0.7" stroke-linejoin="round" stroke-linecap="round"/><rect x="27.68" y="32.19" width="5.44" height="1.19" rx="0.51" fill="url(#gold)" stroke="#5a3a28" stroke-width="0.7" stroke-linejoin="round" stroke-linecap="round"/><path d="M30.4 33.38 L29.209999999999997 35.76 L31.59 35.76 Z" fill="url(#gold)" stroke="#5a3a28" stroke-width="0.7" stroke-linejoin="round" stroke-linecap="round"/>
<path d="M30.8 50.48 Q32.34 52.68 30.8 54.44 Q29.26 52.68 30.8 50.48 Z" fill="url(#gold)" stroke="#5a3a28" stroke-width="0.7" stroke-linejoin="round" stroke-linecap="round"/><path d="M30.36 53.78 Q27.5 51.8 27.94 54.66 Q28.82 54.22 30.14 55.1 Z" fill="url(#gold)" stroke="#5a3a28" stroke-width="0.7" stroke-linejoin="round" stroke-linecap="round"/><path d="M31.240000000000002 53.78 Q34.1 51.8 33.660000000000004 54.66 Q32.78 54.22 31.46 55.1 Z" fill="url(#gold)" stroke="#5a3a28" stroke-width="0.7" stroke-linejoin="round" stroke-linecap="round"/><rect x="29.04" y="54.77" width="3.5200000000000005" height="0.77" rx="0.33" fill="url(#gold)" stroke="#5a3a28" stroke-width="0.7" stroke-linejoin="round" stroke-linecap="round"/><path d="M30.8 55.54 L30.03 57.08 L31.57 57.08 Z" fill="url(#gold)" stroke="#5a3a28" stroke-width="0.7" stroke-linejoin="round" stroke-linecap="round"/>
<path d="M10.4 43.4 L41.6 43.4 L41.8 48.4 L10.2 48.4 Z" fill="url(#leather)" stroke="#5a3a28" stroke-width="1.1" stroke-linejoin="round" stroke-linecap="round"/>
<rect x="28" y="42.6" width="6" height="6.6" rx="1.2" fill="url(#gold)" stroke="#5a3a28" stroke-width="0.7" stroke-linejoin="round" stroke-linecap="round"/>
<rect x="14" y="47" width="6" height="6.4" rx="1.2" fill="url(#leather)" stroke="#5a3a28" stroke-width="0.7" stroke-linejoin="round" stroke-linecap="round"/>
<path d="M15.4 11 Q25 7.6 35.4 11 L36.4 17.4 Q25 15 14.6 17.4 Z" fill="url(#steelv)" stroke="#5a3a28" stroke-width="1.1" stroke-linejoin="round" stroke-linecap="round"/>
</svg>
